<svg width="40" height="32" viewBox="0 0 40 32" fill="none" xmlns="http://www.w3.org/2000/svg">
<path d="M33.8839 3.38082C31.2558 2.17764 28.4814 1.32406 25.6316 0.841888C25.2416 1.53904 24.8887 2.25631 24.5745 2.9907C21.5388 2.53326 18.4517 2.53326 15.416 2.9907C15.1016 2.25638 14.7488 1.53912 14.3589 0.841888C11.5072 1.32813 8.73102 2.18374 6.10033 3.38711C0.877742 11.114 -0.53802 18.649 0.169861 26.0771C3.22834 28.3368 6.65165 30.0554 10.291 31.1581C11.1105 30.0559 11.8356 28.8867 12.4587 27.6627C11.2752 27.2207 10.1329 26.6754 9.04512 26.033C9.33141 25.8254 9.61142 25.6114 9.88199 25.4038C13.0473 26.8924 16.5021 27.6642 20 27.6642C23.4978 27.6642 26.9526 26.8924 30.1179 25.4038C30.3917 25.6272 30.6717 25.8411 30.9548 26.033C29.8649 26.6764 28.7205 27.2228 27.535 27.6659C28.1573 28.8892 28.8825 30.0575 29.7027 31.1581C33.3451 30.0598 36.771 28.342 39.8301 26.0802C40.6607 17.4661 38.4112 10.0003 33.8839 3.38082ZM13.3553 21.5089C11.3827 21.5089 9.753 19.7187 9.753 17.5164C9.753 15.3141 11.3261 13.5082 13.349 13.5082C15.372 13.5082 16.9891 15.3141 16.9545 17.5164C16.9199 19.7187 15.3657 21.5089 13.3553 21.5089ZM26.6446 21.5089C24.6688 21.5089 23.0454 19.7187 23.0454 17.5164C23.0454 15.3141 24.6185 13.5082 26.6446 13.5082C28.6707 13.5082 30.2753 15.3141 30.2406 17.5164C30.206 19.7187 28.655 21.5089 26.6446 21.5089Z" fill="#0F0F0F"/>
</svg>
