<svg width="48" height="48" viewBox="0 0 48 48" fill="none" xmlns="http://www.w3.org/2000/svg">
<mask id="mask0_2930_2200" style="mask-type:alpha" maskUnits="userSpaceOnUse" x="0" y="0" width="48" height="48">
<rect width="48" height="48" fill="#D9D9D9"/>
</mask>
<g mask="url(#mask0_2930_2200)">
<path d="M11.1075 44.275C10.1707 44.275 9.3688 43.9415 8.7017 43.2744C8.0346 42.6072 7.70105 41.8053 7.70105 40.8685V19.3837C7.70105 18.4436 8.0346 17.6388 8.7017 16.9694C9.3688 16.2999 10.1707 15.9652 11.1075 15.9652H14.3684V11.4283C14.3684 8.7494 15.3062 6.46845 17.1817 4.58542C19.0572 2.70238 21.3308 1.76086 24.0024 1.76086C26.674 1.76086 28.9467 2.70238 30.8206 4.58542C32.6945 6.46845 33.6315 8.7494 33.6315 11.4283V15.9652H36.8924C37.8324 15.9652 38.6372 16.2999 39.3066 16.9694C39.9761 17.6388 40.3109 18.4436 40.3109 19.3837V40.8685C40.3109 41.8053 39.9761 42.6072 39.3066 43.2744C38.6372 43.9415 37.8324 44.275 36.8924 44.275H11.1075ZM24.0084 33.9761C25.0694 33.9761 25.975 33.6089 26.725 32.8745C27.475 32.1401 27.85 31.2574 27.85 30.2261C27.85 29.2261 27.4721 28.3178 26.7165 27.5011C25.9609 26.6845 25.0526 26.2761 23.9916 26.2761C22.9305 26.2761 22.025 26.6845 21.275 27.5011C20.525 28.3178 20.15 29.2345 20.15 30.2511C20.15 31.2678 20.5278 32.1428 21.2833 32.8761C22.0389 33.6095 22.9473 33.9761 24.0084 33.9761ZM17.775 15.9652H30.225V11.431C30.225 9.68475 29.6224 8.20623 28.4174 6.99547C27.2123 5.78473 25.7427 5.17936 24.0086 5.17936C22.2746 5.17936 20.8021 5.78473 19.5912 6.99547C18.3804 8.20623 17.775 9.68475 17.775 11.431V15.9652Z" fill="white"/>
</g>
</svg>
