<svg width="30" height="30" viewBox="0 0 30 30" fill="none" xmlns="http://www.w3.org/2000/svg">
<path d="M10.9999 0C7 0.967742 4.7749 2.84591 2.5 6.29032C0.560981 9.22619 5.79212e-09 12.5806 5.79212e-09 14.5161C5.79213e-09 16.4516 -2.38419e-07 20.3226 4 24.6774C7.68141 28.6854 11.0857 30 16.5 30C20.914 29.9977 29.5 25.6452 30 21.2903C30 21.2903 29.0276 22.2581 24 22.2581C18.9999 22.2581 15.0435 18.4293 13.0329 16.4835L13 16.4516C10.9999 14.5161 9.5 10.6452 9.5 6.77419C9.5 2.90323 10.9999 0 10.9999 0Z" fill="#0F0F0F"/>
</svg>
