<svg width="38" height="38" viewBox="0 0 38 38" fill="none" xmlns="http://www.w3.org/2000/svg">
<path d="M18.9793 0.315104C18.6261 0.320625 18.2896 0.466038 18.0435 0.71943C17.7974 0.972822 17.6619 1.31349 17.6668 1.66667V5.66667C17.6643 5.84335 17.6969 6.01877 17.7628 6.18272C17.8287 6.34668 17.9265 6.49591 18.0506 6.62174C18.1746 6.74756 18.3225 6.84748 18.4855 6.91567C18.6485 6.98387 18.8234 7.01899 19.0001 7.01899C19.1768 7.01899 19.3517 6.98387 19.5148 6.91567C19.6778 6.84748 19.8256 6.74756 19.9497 6.62174C20.0737 6.49591 20.1715 6.34668 20.2374 6.18272C20.3033 6.01877 20.3359 5.84335 20.3334 5.66667V1.66667C20.3359 1.48828 20.3025 1.31122 20.2353 1.14596C20.1681 0.980711 20.0684 0.830626 19.9421 0.704598C19.8158 0.578569 19.6655 0.479161 19.5002 0.412258C19.3348 0.345355 19.1577 0.312318 18.9793 0.315104ZM6.72928 5.39844C6.46425 5.39902 6.20542 5.47857 5.9858 5.62692C5.76619 5.77527 5.59577 5.98569 5.49628 6.23133C5.39679 6.47698 5.37276 6.74669 5.42725 7.00605C5.48173 7.26542 5.61227 7.50266 5.80219 7.6875L8.63032 10.5156C8.75318 10.6436 8.90034 10.7457 9.06317 10.8161C9.22601 10.8865 9.40125 10.9237 9.57864 10.9255C9.75603 10.9273 9.93199 10.8937 10.0962 10.8266C10.2605 10.7596 10.4097 10.6604 10.5351 10.535C10.6605 10.4096 10.7597 10.2604 10.8267 10.0961C10.8938 9.93188 10.9274 9.75592 10.9256 9.57853C10.9238 9.40115 10.8866 9.2259 10.8162 9.06306C10.7459 8.90023 10.6437 8.75307 10.5157 8.63021L7.68761 5.80208C7.56305 5.67404 7.41404 5.57233 7.24941 5.50299C7.08479 5.43366 6.90791 5.3981 6.72928 5.39844ZM31.2293 5.39844C30.8829 5.40876 30.5541 5.55353 30.3126 5.80208L27.4845 8.63021C27.3565 8.75307 27.2544 8.90023 27.184 9.06306C27.1136 9.2259 27.0764 9.40114 27.0746 9.57853C27.0728 9.75591 27.1064 9.93188 27.1735 10.0961C27.2405 10.2603 27.3397 10.4095 27.4651 10.535C27.5906 10.6604 27.7398 10.7596 27.904 10.8266C28.0682 10.8937 28.2442 10.9273 28.4216 10.9255C28.599 10.9237 28.7742 10.8865 28.937 10.8161C29.0999 10.7457 29.247 10.6436 29.3699 10.5156L32.198 7.6875C32.3907 7.50022 32.5223 7.2591 32.5756 6.99574C32.6289 6.73238 32.6013 6.45906 32.4966 6.21162C32.3919 5.96417 32.2148 5.75413 31.9887 5.60902C31.7626 5.46392 31.4979 5.39052 31.2293 5.39844ZM19.0001 9.66667C16.5248 9.66667 14.1508 10.65 12.4004 12.4003C10.6501 14.1507 9.66678 16.5246 9.66678 19C9.66678 21.4754 10.6501 23.8493 12.4004 25.5997C14.1508 27.35 16.5248 28.3333 19.0001 28.3333C21.4755 28.3333 23.8494 27.35 25.5998 25.5997C27.3501 23.8493 28.3334 21.4754 28.3334 19C28.3334 16.5246 27.3501 14.1507 25.5998 12.4003C23.8494 10.65 21.4755 9.66667 19.0001 9.66667ZM1.66678 17.6667C1.49009 17.6642 1.31468 17.6968 1.15072 17.7627C0.986761 17.8286 0.837533 17.9264 0.711707 18.0505C0.585881 18.1745 0.485966 18.3223 0.417769 18.4854C0.349572 18.6484 0.314453 18.8233 0.314453 19C0.314453 19.1767 0.349572 19.3516 0.417769 19.5146C0.485966 19.6777 0.585881 19.8255 0.711707 19.9495C0.837533 20.0736 0.986761 20.1714 1.15072 20.2373C1.31468 20.3032 1.49009 20.3358 1.66678 20.3333H5.66678C5.84346 20.3358 6.01888 20.3032 6.18283 20.2373C6.34679 20.1714 6.49602 20.0736 6.62185 19.9495C6.74767 19.8255 6.84759 19.6777 6.91578 19.5146C6.98398 19.3516 7.0191 19.1767 7.0191 19C7.0191 18.8233 6.98398 18.6484 6.91578 18.4854C6.84759 18.3223 6.74767 18.1745 6.62185 18.0505C6.49602 17.9264 6.34679 17.8286 6.18283 17.7627C6.01888 17.6968 5.84346 17.6642 5.66678 17.6667H1.66678ZM32.3334 17.6667C32.1568 17.6642 31.9813 17.6968 31.8174 17.7627C31.6534 17.8286 31.5042 17.9264 31.3784 18.0505C31.2525 18.1745 31.1526 18.3223 31.0844 18.4854C31.0162 18.6484 30.9811 18.8233 30.9811 19C30.9811 19.1767 31.0162 19.3516 31.0844 19.5146C31.1526 19.6777 31.2525 19.8255 31.3784 19.9495C31.5042 20.0736 31.6534 20.1714 31.8174 20.2373C31.9813 20.3032 32.1568 20.3358 32.3334 20.3333H36.3334C36.5101 20.3358 36.6855 20.3032 36.8495 20.2373C37.0135 20.1714 37.1627 20.0736 37.2885 19.9495C37.4143 19.8255 37.5143 19.6777 37.5824 19.5146C37.6506 19.3516 37.6858 19.1767 37.6858 19C37.6858 18.8233 37.6506 18.6484 37.5824 18.4854C37.5143 18.3223 37.4143 18.1745 37.2885 18.0505C37.1627 17.9264 37.0135 17.8286 36.8495 17.7627C36.6855 17.6968 36.5101 17.6642 36.3334 17.6667H32.3334ZM9.54698 27.0807C9.20059 27.0911 8.87181 27.2358 8.63032 27.4844L5.80219 30.3125C5.67423 30.4354 5.57207 30.5825 5.5017 30.7454C5.43132 30.9082 5.39414 31.0834 5.39234 31.2608C5.39053 31.4382 5.42414 31.6142 5.49119 31.7784C5.55825 31.9426 5.65739 32.0918 5.78283 32.2173C5.90827 32.3427 6.05747 32.4419 6.22171 32.5089C6.38594 32.576 6.5619 32.6096 6.73929 32.6078C6.91667 32.606 7.09192 32.5688 7.25475 32.4984C7.41759 32.428 7.56475 32.3259 7.68761 32.1979L10.5157 29.3698C10.7084 29.1825 10.84 28.9414 10.8933 28.678C10.9466 28.4147 10.919 28.1414 10.8143 27.8939C10.7096 27.6465 10.5326 27.4364 10.3064 27.2913C10.0803 27.1462 9.81556 27.0728 9.54698 27.0807ZM28.4142 27.0807C28.1489 27.0808 27.8897 27.16 27.6697 27.3081C27.4497 27.4563 27.2789 27.6667 27.1791 27.9124C27.0793 28.1582 27.055 28.4281 27.1094 28.6877C27.1638 28.9473 27.2944 29.1848 27.4845 29.3698L30.3126 32.1979C30.4355 32.3259 30.5826 32.428 30.7455 32.4984C30.9083 32.5688 31.0835 32.606 31.2609 32.6078C31.4383 32.6096 31.6143 32.576 31.7785 32.5089C31.9427 32.4419 32.0919 32.3427 32.2174 32.2173C32.3428 32.0918 32.442 31.9426 32.509 31.7784C32.5761 31.6142 32.6097 31.4382 32.6079 31.2608C32.6061 31.0834 32.5689 30.9082 32.4985 30.7454C32.4281 30.5825 32.326 30.4354 32.198 30.3125L29.3699 27.4844C29.2456 27.3566 29.0971 27.2551 28.9329 27.1858C28.7687 27.1165 28.5924 27.0807 28.4142 27.0807ZM18.9793 30.9818C18.6261 30.9873 18.2896 31.1327 18.0435 31.3861C17.7974 31.6395 17.6619 31.9802 17.6668 32.3333V36.3333C17.6643 36.51 17.6969 36.6854 17.7628 36.8494C17.8287 37.0133 17.9265 37.1626 18.0506 37.2884C18.1746 37.4142 18.3225 37.5141 18.4855 37.5823C18.6485 37.6505 18.8234 37.6857 19.0001 37.6857C19.1768 37.6857 19.3517 37.6505 19.5148 37.5823C19.6778 37.5141 19.8256 37.4142 19.9497 37.2884C20.0737 37.1626 20.1715 37.0133 20.2374 36.8494C20.3033 36.6854 20.3359 36.51 20.3334 36.3333V32.3333C20.3359 32.1549 20.3025 31.9779 20.2353 31.8126C20.1681 31.6474 20.0684 31.4973 19.9421 31.3713C19.8158 31.2452 19.6655 31.1458 19.5002 31.0789C19.3348 31.012 19.1577 30.979 18.9793 30.9818Z" fill="white"/>
</svg>
